{
    "asset" : {
        "generator" : "Khronos glTF Blender I/O v1.7.33",
        "version" : "2.0"
    },
    "scene" : 0,
    "scenes" : [
        {
            "name" : "Scene",
            "nodes" : [
                0
            ]
        }
    ],
    "nodes" : [
        {
            "mesh" : 0,
            "name" : "door1",
            "rotation" : [
                0,
                0.7071068286895752,
                0,
                0.7071068286895752
            ]
        }
    ],
    "materials" : [
        {
            "doubleSided" : true,
            "name" : "door2Material",
            "pbrMetallicRoughness" : {
                "baseColorFactor" : [
                    0.015994930639863014,
                    0.007259332109242678,
                    0.00452458905056119,
                    1
                ],
                "metallicFactor" : 0,
                "roughnessFactor" : 0.6111111044883728
            }
        },
        {
            "doubleSided" : true,
            "name" : "metalMaterial",
            "pbrMetallicRoughness" : {
                "baseColorFactor" : [
                    0.20190100371837616,
                    0.20190100371837616,
                    0.20190100371837616,
                    1
                ],
                "roughnessFactor" : 0.5688406229019165
            }
        }
    ],
    "meshes" : [
        {
            "name" : "Cube.009",
            "primitives" : [
                {
                    "attributes" : {
                        "POSITION" : 0,
                        "NORMAL" : 1,
                        "TEXCOORD_0" : 2
                    },
                    "indices" : 3,
                    "material" : 0
                },
                {
                    "attributes" : {
                        "POSITION" : 4,
                        "NORMAL" : 5,
                        "TEXCOORD_0" : 6
                    },
                    "indices" : 7,
                    "material" : 1
                }
            ]
        }
    ],
    "accessors" : [
        {
            "bufferView" : 0,
            "componentType" : 5126,
            "count" : 936,
            "max" : [
                0.0029636595863848925,
                2.7774035930633545,
                1.31815505027771
            ],
            "min" : [
                -0.06547573953866959,
                0,
                0
            ],
            "type" : "VEC3"
        },
        {
            "bufferView" : 1,
            "componentType" : 5126,
            "count" : 936,
            "type" : "VEC3"
        },
        {
            "bufferView" : 2,
            "componentType" : 5126,
            "count" : 936,
            "type" : "VEC2"
        },
        {
            "bufferView" : 3,
            "componentType" : 5123,
            "count" : 1428,
            "type" : "SCALAR"
        },
        {
            "bufferView" : 4,
            "componentType" : 5126,
            "count" : 180,
            "max" : [
                0.10310627520084381,
                1.39122474193573,
                1.2946465015411377
            ],
            "min" : [
                -0.1656181365251541,
                1.263657569885254,
                1.1670793294906616
            ],
            "type" : "VEC3"
        },
        {
            "bufferView" : 5,
            "componentType" : 5126,
            "count" : 180,
            "type" : "VEC3"
        },
        {
            "bufferView" : 6,
            "componentType" : 5126,
            "count" : 180,
            "type" : "VEC2"
        },
        {
            "bufferView" : 7,
            "componentType" : 5123,
            "count" : 516,
            "type" : "SCALAR"
        }
    ],
    "bufferViews" : [
        {
            "buffer" : 0,
            "byteLength" : 11232,
            "byteOffset" : 0
        },
        {
            "buffer" : 0,
            "byteLength" : 11232,
            "byteOffset" : 11232
        },
        {
            "buffer" : 0,
            "byteLength" : 7488,
            "byteOffset" : 22464
        },
        {
            "buffer" : 0,
            "byteLength" : 2856,
            "byteOffset" : 29952
        },
        {
            "buffer" : 0,
            "byteLength" : 2160,
            "byteOffset" : 32808
        },
        {
            "buffer" : 0,
            "byteLength" : 2160,
            "byteOffset" : 34968
        },
        {
            "buffer" : 0,
            "byteLength" : 1440,
            "byteOffset" : 37128
        },
        {
            "buffer" : 0,
            "byteLength" : 1032,
            "byteOffset" : 38568
        }
    ],
    "buffers" : [
        {
            "byteLength" : 39600,
            "uri" : "data:application/octet-stream;base64,"
        }
    ]
}
