{
	"asset":{
		"generator":"Khronos glTF Blender I/O v3.5.30",
		"version":"2.0"
	},
	"extensionsUsed":[
		"KHR_materials_specular",
		"KHR_materials_ior"
	],
	"scene":0,
	"scenes":[
		{
			"name":"Scene",
			"nodes":[
				0,
				2,
				3,
				4,
				5,
				6,
				7
			]
		}
	],
	"nodes":[
		{
			"mesh":0,
			"name":"PhysMesh",
			"translation":[
				-0.00016578182112425566,
				0,
				-2.016510009765625
			]
		},
		{
			"mesh":1,
			"name":"Computer",
			"scale":[
				0.4410474896430969,
				0.4410474896430969,
				0.4410474896430969
			],
			"translation":[
				2.016244888305664,
				1.3442405462265015,
				2.6657047271728516
			]
		},
		{
			"children":[
				1
			],
			"name":"DynamicObjects",
			"translation":[
				-2.19682240486145,
				0.0002683401107788086,
				1.8666844367980957
			]
		},
		{
			"mesh":2,
			"name":"ArchSpeaker",
			"scale":[
				0.21707892417907715,
				0.21707892417907715,
				0.21707892417907715
			],
			"translation":[
				-4.09217643737793,
				0.0065076351165771484,
				0.03598427772521973
			]
		},
		{
			"mesh":3,
			"name":"ClockSpeaker",
			"scale":[
				0.21707892417907715,
				0.21707892417907715,
				0.21707892417907715
			],
			"translation":[
				-10.985945701599121,
				2.334656238555908,
				1.4191553592681885
			]
		},
		{
			"mesh":4,
			"name":"DripSpeaker",
			"scale":[
				0.21707892417907715,
				0.21707892417907715,
				0.21707892417907715
			],
			"translation":[
				-3.7867472171783447,
				0.11252111196517944,
				-4.0312395095825195
			]
		},
		{
			"mesh":5,
			"name":"StaticSpeaker",
			"scale":[
				0.21707892417907715,
				0.21707892417907715,
				0.21707892417907715
			],
			"translation":[
				-2.0928380489349365,
				0.2170606553554535,
				-2.1865453720092773
			]
		},
		{
			"mesh":6,
			"name":"WindowSpeaker",
			"scale":[
				0.1378437876701355,
				0.1378437876701355,
				0.1378437876701355
			],
			"translation":[
				-1.5296006202697754,
				1.8242149353027344,
				4.9875407218933105
			]
		}
	],
	"animations":[
		{
			"channels":[
				{
					"sampler":0,
					"target":{
						"node":0,
						"path":"translation"
					}
				},
				{
					"sampler":1,
					"target":{
						"node":0,
						"path":"rotation"
					}
				},
				{
					"sampler":2,
					"target":{
						"node":0,
						"path":"scale"
					}
				}
			],
			"name":"PhysMesh",
			"samplers":[
				{
					"input":35,
					"interpolation":"LINEAR",
					"output":36
				},
				{
					"input":35,
					"interpolation":"LINEAR",
					"output":37
				},
				{
					"input":35,
					"interpolation":"LINEAR",
					"output":38
				}
			]
		},
		{
			"channels":[
				{
					"sampler":0,
					"target":{
						"node":2,
						"path":"translation"
					}
				},
				{
					"sampler":1,
					"target":{
						"node":2,
						"path":"rotation"
					}
				},
				{
					"sampler":2,
					"target":{
						"node":2,
						"path":"scale"
					}
				}
			],
			"name":"DynamicObjects",
			"samplers":[
				{
					"input":35,
					"interpolation":"LINEAR",
					"output":39
				},
				{
					"input":35,
					"interpolation":"LINEAR",
					"output":40
				},
				{
					"input":35,
					"interpolation":"LINEAR",
					"output":41
				}
			]
		},
		{
			"channels":[
				{
					"sampler":0,
					"target":{
						"node":1,
						"path":"translation"
					}
				},
				{
					"sampler":1,
					"target":{
						"node":1,
						"path":"rotation"
					}
				},
				{
					"sampler":2,
					"target":{
						"node":1,
						"path":"scale"
					}
				}
			],
			"name":"Computer",
			"samplers":[
				{
					"input":35,
					"interpolation":"LINEAR",
					"output":42
				},
				{
					"input":35,
					"interpolation":"LINEAR",
					"output":43
				},
				{
					"input":35,
					"interpolation":"LINEAR",
					"output":44
				}
			]
		},
		{
			"channels":[
				{
					"sampler":0,
					"target":{
						"node":3,
						"path":"translation"
					}
				},
				{
					"sampler":1,
					"target":{
						"node":3,
						"path":"rotation"
					}
				},
				{
					"sampler":2,
					"target":{
						"node":3,
						"path":"scale"
					}
				}
			],
			"name":"ArchSpeaker",
			"samplers":[
				{
					"input":35,
					"interpolation":"LINEAR",
					"output":45
				},
				{
					"input":35,
					"interpolation":"LINEAR",
					"output":46
				},
				{
					"input":35,
					"interpolation":"LINEAR",
					"output":47
				}
			]
		},
		{
			"channels":[
				{
					"sampler":0,
					"target":{
						"node":4,
						"path":"translation"
					}
				},
				{
					"sampler":1,
					"target":{
						"node":4,
						"path":"rotation"
					}
				},
				{
					"sampler":2,
					"target":{
						"node":4,
						"path":"scale"
					}
				}
			],
			"name":"ClockSpeaker",
			"samplers":[
				{
					"input":35,
					"interpolation":"LINEAR",
					"output":48
				},
				{
					"input":35,
					"interpolation":"LINEAR",
					"output":49
				},
				{
					"input":35,
					"interpolation":"LINEAR",
					"output":50
				}
			]
		},
		{
			"channels":[
				{
					"sampler":0,
					"target":{
						"node":5,
						"path":"translation"
					}
				},
				{
					"sampler":1,
					"target":{
						"node":5,
						"path":"rotation"
					}
				},
				{
					"sampler":2,
					"target":{
						"node":5,
						"path":"scale"
					}
				}
			],
			"name":"DripSpeaker",
			"samplers":[
				{
					"input":35,
					"interpolation":"LINEAR",
					"output":51
				},
				{
					"input":35,
					"interpolation":"LINEAR",
					"output":52
				},
				{
					"input":35,
					"interpolation":"LINEAR",
					"output":53
				}
			]
		},
		{
			"channels":[
				{
					"sampler":0,
					"target":{
						"node":6,
						"path":"translation"
					}
				},
				{
					"sampler":1,
					"target":{
						"node":6,
						"path":"rotation"
					}
				},
				{
					"sampler":2,
					"target":{
						"node":6,
						"path":"scale"
					}
				}
			],
			"name":"StaticSpeaker",
			"samplers":[
				{
					"input":35,
					"interpolation":"LINEAR",
					"output":54
				},
				{
					"input":35,
					"interpolation":"LINEAR",
					"output":55
				},
				{
					"input":35,
					"interpolation":"LINEAR",
					"output":56
				}
			]
		},
		{
			"channels":[
				{
					"sampler":0,
					"target":{
						"node":7,
						"path":"translation"
					}
				},
				{
					"sampler":1,
					"target":{
						"node":7,
						"path":"rotation"
					}
				},
				{
					"sampler":2,
					"target":{
						"node":7,
						"path":"scale"
					}
				}
			],
			"name":"WindowSpeaker",
			"samplers":[
				{
					"input":35,
					"interpolation":"LINEAR",
					"output":57
				},
				{
					"input":35,
					"interpolation":"LINEAR",
					"output":58
				},
				{
					"input":35,
					"interpolation":"LINEAR",
					"output":59
				}
			]
		}
	],
	"materials":[
		{
			"doubleSided":true,
			"extensions":{
				"KHR_materials_specular":{
					"specularColorFactor":[
						0,
						0,
						0
					]
				},
				"KHR_materials_ior":{
					"ior":1.4500000476837158
				}
			},
			"name":"BakedTexture",
			"pbrMetallicRoughness":{
				"baseColorTexture":{
					"index":0
				},
				"metallicFactor":0,
				"roughnessFactor":0
			}
		},
		{
			"doubleSided":true,
			"name":"WindowRain",
			"pbrMetallicRoughness":{
				"baseColorFactor":[
					0.06855213642120361,
					0.0837087482213974,
					0.17885732650756836,
					1
				],
				"metallicFactor":0,
				"roughnessFactor":0.5
			}
		},
		{
			"alphaCutoff":0.5,
			"alphaMode":"MASK",
			"doubleSided":true,
			"name":"InvisibleWall",
			"pbrMetallicRoughness":{
				"baseColorTexture":{
					"index":1
				},
				"metallicFactor":0,
				"roughnessFactor":0.5
			}
		},
		{
			"alphaMode":"BLEND",
			"doubleSided":true,
			"name":"AlphaGradient",
			"pbrMetallicRoughness":{
				"baseColorTexture":{
					"index":2
				},
				"metallicFactor":0,
				"roughnessFactor":0.5
			}
		},
		{
			"alphaCutoff":0.6815891861915588,
			"alphaMode":"MASK",
			"doubleSided":true,
			"extensions":{
				"KHR_materials_specular":{
					"specularColorFactor":[
						0,
						0,
						0
					]
				},
				"KHR_materials_ior":{
					"ior":1.4500000476837158
				}
			},
			"name":"Textures",
			"pbrMetallicRoughness":{
				"baseColorTexture":{
					"index":3
				},
				"metallicFactor":0
			}
		}
	],
	"meshes":[
		{
			"name":"Plane.049",
			"primitives":[
				{
					"attributes":{
						"POSITION":0,
						"TEXCOORD_0":1,
						"NORMAL":2
					},
					"indices":3,
					"material":0
				},
				{
					"attributes":{
						"POSITION":4,
						"TEXCOORD_0":5,
						"NORMAL":6
					},
					"indices":7,
					"material":1
				},
				{
					"attributes":{
						"POSITION":8,
						"TEXCOORD_0":9,
						"NORMAL":10
					},
					"indices":11,
					"material":2
				},
				{
					"attributes":{
						"POSITION":12,
						"TEXCOORD_0":13,
						"NORMAL":14
					},
					"indices":15,
					"material":3
				}
			]
		},
		{
			"name":"Cube.059",
			"primitives":[
				{
					"attributes":{
						"POSITION":16,
						"TEXCOORD_0":17,
						"NORMAL":18
					},
					"indices":19,
					"material":4
				}
			]
		},
		{
			"name":"Cube.119",
			"primitives":[
				{
					"attributes":{
						"POSITION":20,
						"TEXCOORD_0":21,
						"NORMAL":22
					},
					"indices":19
				}
			]
		},
		{
			"name":"Cube.060",
			"primitives":[
				{
					"attributes":{
						"POSITION":23,
						"TEXCOORD_0":24,
						"NORMAL":25
					},
					"indices":19
				}
			]
		},
		{
			"name":"Cube.061",
			"primitives":[
				{
					"attributes":{
						"POSITION":26,
						"TEXCOORD_0":27,
						"NORMAL":28
					},
					"indices":19
				}
			]
		},
		{
			"name":"Cube.062",
			"primitives":[
				{
					"attributes":{
						"POSITION":29,
						"TEXCOORD_0":30,
						"NORMAL":31
					},
					"indices":19
				}
			]
		},
		{
			"name":"Cube.118",
			"primitives":[
				{
					"attributes":{
						"POSITION":32,
						"TEXCOORD_0":33,
						"NORMAL":34
					},
					"indices":19
				}
			]
		}
	],
	"textures":[
		{
			"sampler":0,
			"source":0
		},
		{
			"sampler":1,
			"source":1
		},
		{
			"sampler":0,
			"source":2
		},
		{
			"sampler":0,
			"source":3
		}
	],
	"images":[
		{
			"bufferView":4,
			"mimeType":"image/jpeg",
			"name":"AsagaoRoomBake"
		},
		{
			"bufferView":13,
			"mimeType":"image/png",
			"name":"invisibleWallTexture"
		},
		{
			"bufferView":18,
			"mimeType":"image/png",
			"name":"alphaGradient"
		},
		{
			"bufferView":23,
			"mimeType":"image/png",
			"name":"textureAtlus"
		}
	],
	"accessors":[
		{
			"bufferView":0,
			"componentType":5126,
			"count":5230,
			"max":[
				3.1598379611968994,
				10.496203422546387,
				7.050673484802246
			],
			"min":[
				-11.296367645263672,
				-0.7834305763244629,
				-3.3708505630493164
			],
			"type":"VEC3"
		},
		{
			"bufferView":1,
			"componentType":5126,
			"count":5230,
			"type":"VEC2"
		},
		{
			"bufferView":2,
			"componentType":5126,
			"count":5230,
			"type":"VEC3"
		},
		{
			"bufferView":3,
			"componentType":5123,
			"count":10047,
			"type":"SCALAR"
		},
		{
			"bufferView":5,
			"componentType":5126,
			"count":4,
			"max":[
				-1.2398093938827515,
				2.392047882080078,
				7
			],
			"min":[
				-1.814522385597229,
				1.2743401527404785,
				7
			],
			"type":"VEC3"
		},
		{
			"bufferView":6,
			"componentType":5126,
			"count":4,
			"type":"VEC2"
		},
		{
			"bufferView":7,
			"componentType":5126,
			"count":4,
			"type":"VEC3"
		},
		{
			"bufferView":8,
			"componentType":5123,
			"count":6,
			"type":"SCALAR"
		},
		{
			"bufferView":9,
			"componentType":5126,
			"count":60,
			"max":[
				0.9953509569168091,
				2.6346921920776367,
				6.972829341888428
			],
			"min":[
				-10.472790718078613,
				-0.018429100513458252,
				-0.3871145248413086
			],
			"type":"VEC3"
		},
		{
			"bufferView":10,
			"componentType":5126,
			"count":60,
			"type":"VEC2"
		},
		{
			"bufferView":11,
			"componentType":5126,
			"count":60,
			"type":"VEC3"
		},
		{
			"bufferView":12,
			"componentType":5123,
			"count":90,
			"type":"SCALAR"
		},
		{
			"bufferView":14,
			"componentType":5126,
			"count":40,
			"max":[
				-3.515077829360962,
				2.456460475921631,
				6.75455904006958
			],
			"min":[
				-6.44219970703125,
				0.010788917541503906,
				-2.865650177001953
			],
			"type":"VEC3"
		},
		{
			"bufferView":15,
			"componentType":5126,
			"count":40,
			"type":"VEC2"
		},
		{
			"bufferView":16,
			"componentType":5126,
			"count":40,
			"type":"VEC3"
		},
		{
			"bufferView":17,
			"componentType":5123,
			"count":60,
			"type":"SCALAR"
		},
		{
			"bufferView":19,
			"componentType":5126,
			"count":24,
			"max":[
				1,
				1,
				1
			],
			"min":[
				-1,
				-1,
				-1
			],
			"type":"VEC3"
		},
		{
			"bufferView":20,
			"componentType":5126,
			"count":24,
			"type":"VEC2"
		},
		{
			"bufferView":21,
			"componentType":5126,
			"count":24,
			"type":"VEC3"
		},
		{
			"bufferView":22,
			"componentType":5123,
			"count":36,
			"type":"SCALAR"
		},
		{
			"bufferView":24,
			"componentType":5126,
			"count":24,
			"max":[
				1,
				1,
				1
			],
			"min":[
				-1,
				-1,
				-1
			],
			"type":"VEC3"
		},
		{
			"bufferView":25,
			"componentType":5126,
			"count":24,
			"type":"VEC2"
		},
		{
			"bufferView":26,
			"componentType":5126,
			"count":24,
			"type":"VEC3"
		},
		{
			"bufferView":27,
			"componentType":5126,
			"count":24,
			"max":[
				1,
				1,
				1
			],
			"min":[
				-1,
				-1,
				-1
			],
			"type":"VEC3"
		},
		{
			"bufferView":28,
			"componentType":5126,
			"count":24,
			"type":"VEC2"
		},
		{
			"bufferView":29,
			"componentType":5126,
			"count":24,
			"type":"VEC3"
		},
		{
			"bufferView":30,
			"componentType":5126,
			"count":24,
			"max":[
				1,
				1,
				1
			],
			"min":[
				-1,
				-1,
				-1
			],
			"type":"VEC3"
		},
		{
			"bufferView":31,
			"componentType":5126,
			"count":24,
			"type":"VEC2"
		},
		{
			"bufferView":32,
			"componentType":5126,
			"count":24,
			"type":"VEC3"
		},
		{
			"bufferView":33,
			"componentType":5126,
			"count":24,
			"max":[
				1,
				1,
				1
			],
			"min":[
				-1,
				-1,
				-1
			],
			"type":"VEC3"
		},
		{
			"bufferView":34,
			"componentType":5126,
			"count":24,
			"type":"VEC2"
		},
		{
			"bufferView":35,
			"componentType":5126,
			"count":24,
			"type":"VEC3"
		},
		{
			"bufferView":36,
			"componentType":5126,
			"count":24,
			"max":[
				1,
				1,
				1
			],
			"min":[
				-1,
				-1,
				-1
			],
			"type":"VEC3"
		},
		{
			"bufferView":37,
			"componentType":5126,
			"count":24,
			"type":"VEC2"
		},
		{
			"bufferView":38,
			"componentType":5126,
			"count":24,
			"type":"VEC3"
		},
		{
			"bufferView":39,
			"componentType":5126,
			"count":50,
			"max":[
				2.0833333333333335
			],
			"min":[
				0.041666666666666664
			],
			"type":"SCALAR"
		},
		{
			"bufferView":40,
			"componentType":5126,
			"count":50,
			"type":"VEC3"
		},
		{
			"bufferView":41,
			"componentType":5126,
			"count":50,
			"type":"VEC4"
		},
		{
			"bufferView":42,
			"componentType":5126,
			"count":50,
			"type":"VEC3"
		},
		{
			"bufferView":43,
			"componentType":5126,
			"count":50,
			"type":"VEC3"
		},
		{
			"bufferView":44,
			"componentType":5126,
			"count":50,
			"type":"VEC4"
		},
		{
			"bufferView":45,
			"componentType":5126,
			"count":50,
			"type":"VEC3"
		},
		{
			"bufferView":46,
			"componentType":5126,
			"count":50,
			"type":"VEC3"
		},
		{
			"bufferView":47,
			"componentType":5126,
			"count":50,
			"type":"VEC4"
		},
		{
			"bufferView":48,
			"componentType":5126,
			"count":50,
			"type":"VEC3"
		},
		{
			"bufferView":49,
			"componentType":5126,
			"count":50,
			"type":"VEC3"
		},
		{
			"bufferView":50,
			"componentType":5126,
			"count":50,
			"type":"VEC4"
		},
		{
			"bufferView":51,
			"componentType":5126,
			"count":50,
			"type":"VEC3"
		},
		{
			"bufferView":52,
			"componentType":5126,
			"count":50,
			"type":"VEC3"
		},
		{
			"bufferView":53,
			"componentType":5126,
			"count":50,
			"type":"VEC4"
		},
		{
			"bufferView":54,
			"componentType":5126,
			"count":50,
			"type":"VEC3"
		},
		{
			"bufferView":55,
			"componentType":5126,
			"count":50,
			"type":"VEC3"
		},
		{
			"bufferView":56,
			"componentType":5126,
			"count":50,
			"type":"VEC4"
		},
		{
			"bufferView":57,
			"componentType":5126,
			"count":50,
			"type":"VEC3"
		},
		{
			"bufferView":58,
			"componentType":5126,
			"count":50,
			"type":"VEC3"
		},
		{
			"bufferView":59,
			"componentType":5126,
			"count":50,
			"type":"VEC4"
		},
		{
			"bufferView":60,
			"componentType":5126,
			"count":50,
			"type":"VEC3"
		},
		{
			"bufferView":61,
			"componentType":5126,
			"count":50,
			"type":"VEC3"
		},
		{
			"bufferView":62,
			"componentType":5126,
			"count":50,
			"type":"VEC4"
		},
		{
			"bufferView":63,
			"componentType":5126,
			"count":50,
			"type":"VEC3"
		}
	],
	"bufferViews":[
		{
			"buffer":0,
			"byteLength":62760,
			"byteOffset":0,
			"target":34962
		},
		{
			"buffer":0,
			"byteLength":41840,
			"byteOffset":62760,
			"target":34962
		},
		{
			"buffer":0,
			"byteLength":62760,
			"byteOffset":104600,
			"target":34962
		},
		{
			"buffer":0,
			"byteLength":20094,
			"byteOffset":167360,
			"target":34963
		},
		{
			"buffer":0,
			"byteLength":650571,
			"byteOffset":187456
		},
		{
			"buffer":0,
			"byteLength":48,
			"byteOffset":838028,
			"target":34962
		},
		{
			"buffer":0,
			"byteLength":32,
			"byteOffset":838076,
			"target":34962
		},
		{
			"buffer":0,
			"byteLength":48,
			"byteOffset":838108,
			"target":34962
		},
		{
			"buffer":0,
			"byteLength":12,
			"byteOffset":838156,
			"target":34963
		},
		{
			"buffer":0,
			"byteLength":720,
			"byteOffset":838168,
			"target":34962
		},
		{
			"buffer":0,
			"byteLength":480,
			"byteOffset":838888,
			"target":34962
		},
		{
			"buffer":0,
			"byteLength":720,
			"byteOffset":839368,
			"target":34962
		},
		{
			"buffer":0,
			"byteLength":180,
			"byteOffset":840088,
			"target":34963
		},
		{
			"buffer":0,
			"byteLength":89,
			"byteOffset":840268
		},
		{
			"buffer":0,
			"byteLength":480,
			"byteOffset":840360,
			"target":34962
		},
		{
			"buffer":0,
			"byteLength":320,
			"byteOffset":840840,
			"target":34962
		},
		{
			"buffer":0,
			"byteLength":480,
			"byteOffset":841160,
			"target":34962
		},
		{
			"buffer":0,
			"byteLength":120,
			"byteOffset":841640,
			"target":34963
		},
		{
			"buffer":0,
			"byteLength":115,
			"byteOffset":841760
		},
		{
			"buffer":0,
			"byteLength":288,
			"byteOffset":841876,
			"target":34962
		},
		{
			"buffer":0,
			"byteLength":192,
			"byteOffset":842164,
			"target":34962
		},
		{
			"buffer":0,
			"byteLength":288,
			"byteOffset":842356,
			"target":34962
		},
		{
			"buffer":0,
			"byteLength":72,
			"byteOffset":842644,
			"target":34963
		},
		{
			"buffer":0,
			"byteLength":486759,
			"byteOffset":842716
		},
		{
			"buffer":0,
			"byteLength":288,
			"byteOffset":1329476,
			"target":34962
		},
		{
			"buffer":0,
			"byteLength":192,
			"byteOffset":1329764,
			"target":34962
		},
		{
			"buffer":0,
			"byteLength":288,
			"byteOffset":1329956,
			"target":34962
		},
		{
			"buffer":0,
			"byteLength":288,
			"byteOffset":1330244,
			"target":34962
		},
		{
			"buffer":0,
			"byteLength":192,
			"byteOffset":1330532,
			"target":34962
		},
		{
			"buffer":0,
			"byteLength":288,
			"byteOffset":1330724,
			"target":34962
		},
		{
			"buffer":0,
			"byteLength":288,
			"byteOffset":1331012,
			"target":34962
		},
		{
			"buffer":0,
			"byteLength":192,
			"byteOffset":1331300,
			"target":34962
		},
		{
			"buffer":0,
			"byteLength":288,
			"byteOffset":1331492,
			"target":34962
		},
		{
			"buffer":0,
			"byteLength":288,
			"byteOffset":1331780,
			"target":34962
		},
		{
			"buffer":0,
			"byteLength":192,
			"byteOffset":1332068,
			"target":34962
		},
		{
			"buffer":0,
			"byteLength":288,
			"byteOffset":1332260,
			"target":34962
		},
		{
			"buffer":0,
			"byteLength":288,
			"byteOffset":1332548,
			"target":34962
		},
		{
			"buffer":0,
			"byteLength":192,
			"byteOffset":1332836,
			"target":34962
		},
		{
			"buffer":0,
			"byteLength":288,
			"byteOffset":1333028,
			"target":34962
		},
		{
			"buffer":0,
			"byteLength":200,
			"byteOffset":1333316
		},
		{
			"buffer":0,
			"byteLength":600,
			"byteOffset":1333516
		},
		{
			"buffer":0,
			"byteLength":800,
			"byteOffset":1334116
		},
		{
			"buffer":0,
			"byteLength":600,
			"byteOffset":1334916
		},
		{
			"buffer":0,
			"byteLength":600,
			"byteOffset":1335516
		},
		{
			"buffer":0,
			"byteLength":800,
			"byteOffset":1336116
		},
		{
			"buffer":0,
			"byteLength":600,
			"byteOffset":1336916
		},
		{
			"buffer":0,
			"byteLength":600,
			"byteOffset":1337516
		},
		{
			"buffer":0,
			"byteLength":800,
			"byteOffset":1338116
		},
		{
			"buffer":0,
			"byteLength":600,
			"byteOffset":1338916
		},
		{
			"buffer":0,
			"byteLength":600,
			"byteOffset":1339516
		},
		{
			"buffer":0,
			"byteLength":800,
			"byteOffset":1340116
		},
		{
			"buffer":0,
			"byteLength":600,
			"byteOffset":1340916
		},
		{
			"buffer":0,
			"byteLength":600,
			"byteOffset":1341516
		},
		{
			"buffer":0,
			"byteLength":800,
			"byteOffset":1342116
		},
		{
			"buffer":0,
			"byteLength":600,
			"byteOffset":1342916
		},
		{
			"buffer":0,
			"byteLength":600,
			"byteOffset":1343516
		},
		{
			"buffer":0,
			"byteLength":800,
			"byteOffset":1344116
		},
		{
			"buffer":0,
			"byteLength":600,
			"byteOffset":1344916
		},
		{
			"buffer":0,
			"byteLength":600,
			"byteOffset":1345516
		},
		{
			"buffer":0,
			"byteLength":800,
			"byteOffset":1346116
		},
		{
			"buffer":0,
			"byteLength":600,
			"byteOffset":1346916
		},
		{
			"buffer":0,
			"byteLength":600,
			"byteOffset":1347516
		},
		{
			"buffer":0,
			"byteLength":800,
			"byteOffset":1348116
		},
		{
			"buffer":0,
			"byteLength":600,
			"byteOffset":1348916
		}
	],
	"samplers":[
		{
			"magFilter":9729,
			"minFilter":9987
		},
		{
			"magFilter":9729,
			"minFilter":9987,
			"wrapS":33071,
			"wrapT":33071
		}
	],
	"buffers":[
		{
			"byteLength":1349516,
			"uri":"data:application/octet-stream;base64,"
		}
	]
}
