{
	"asset":{
		"generator":"Khronos glTF Blender I/O v3.5.30",
		"version":"2.0"
	},
	"extensionsUsed":[
		"KHR_materials_specular",
		"KHR_materials_ior",
		"KHR_materials_emissive_strength",
		"KHR_materials_transmission"
	],
	"scene":0,
	"scenes":[
		{
			"name":"Scene",
			"nodes":[
				0,
				7,
				8
			]
		}
	],
	"nodes":[
		{
			"mesh":0,
			"name":"PhysMesh",
			"scale":[
				3.114213228225708,
				3.114213228225708,
				3.114213228225708
			],
			"translation":[
				-31.72783088684082,
				-0.1973426342010498,
				32.85450744628906
			]
		},
		{
			"mesh":1,
			"name":"elevatorButton",
			"scale":[
				0.9705615043640137,
				0.9705615043640137,
				0.9705615043640137
			],
			"translation":[
				-0.9334446787834167,
				1.210719108581543,
				-0.15390777587890625
			]
		},
		{
			"mesh":2,
			"name":"elevatorDoorL",
			"translation":[
				-0.5516813397407532,
				-0.003207683563232422,
				-0.01355743408203125
			]
		},
		{
			"mesh":3,
			"name":"elevatorDoorR",
			"translation":[
				0.5488905906677246,
				-0.003207683563232422,
				-0.01355743408203125
			]
		},
		{
			"children":[
				1,
				2,
				3
			],
			"mesh":4,
			"name":"elevator",
			"translation":[
				0.07608330249786377,
				-9.996431350708008,
				-1.3877944946289062
			]
		},
		{
			"mesh":5,
			"name":"elevatorOpenDown",
			"scale":[
				1.6422958374023438,
				1.6422958374023438,
				1.6422958374023438
			],
			"translation":[
				0.9364278316497803,
				-8.790421485900879,
				-1.2385025024414062
			]
		},
		{
			"mesh":6,
			"name":"elevatorOpenUp",
			"scale":[
				1.6422958374023438,
				1.6422958374023438,
				1.6422958374023438
			],
			"translation":[
				0.9364278316497803,
				1.246109962463379,
				-1.2385025024414062
			]
		},
		{
			"children":[
				4,
				5,
				6
			],
			"name":"DynamicObjects",
			"translation":[
				1.0742416381835938,
				3.0080156326293945,
				-64.69898223876953
			]
		},
		{
			"name":"Spawnpoint",
			"rotation":[
				0,
				-1,
				0,
				1.6292068494294654e-07
			],
			"translation":[
				9.01655387878418,
				-0.05560636520385742,
				-32.10718536376953
			]
		}
	],
	"materials":[
		{
			"alphaCutoff":0.6815891861915588,
			"alphaMode":"MASK",
			"doubleSided":true,
			"extensions":{
				"KHR_materials_specular":{
					"specularColorFactor":[
						0,
						0,
						0
					]
				},
				"KHR_materials_ior":{
					"ior":0
				}
			},
			"name":"Textures",
			"pbrMetallicRoughness":{
				"baseColorTexture":{
					"index":0
				},
				"metallicFactor":0
			}
		},
		{
			"alphaCutoff":0.6815891861915588,
			"alphaMode":"MASK",
			"doubleSided":true,
			"extensions":{
				"KHR_materials_specular":{
					"specularColorFactor":[
						0,
						0,
						0
					]
				},
				"KHR_materials_ior":{
					"ior":1.4500000476837158
				}
			},
			"name":"TexturesDoubleSide",
			"pbrMetallicRoughness":{
				"baseColorTexture":{
					"index":1
				},
				"metallicFactor":0
			}
		},
		{
			"alphaMode":"BLEND",
			"doubleSided":true,
			"emissiveFactor":[
				1,
				1,
				1
			],
			"emissiveTexture":{
				"index":2
			},
			"extensions":{
				"KHR_materials_emissive_strength":{
					"emissiveStrength":2.5
				},
				"KHR_materials_specular":{
					"specularColorFactor":[
						0,
						0,
						0
					]
				},
				"KHR_materials_ior":{
					"ior":1.4500000476837158
				}
			},
			"name":"EmissiveTextures",
			"pbrMetallicRoughness":{
				"baseColorTexture":{
					"index":3
				},
				"metallicFactor":0,
				"roughnessFactor":0.5
			}
		},
		{
			"doubleSided":true,
			"name":"Water",
			"pbrMetallicRoughness":{
				"baseColorFactor":[
					0.14439578354358673,
					0.1557248830795288,
					0.226583793759346,
					1
				],
				"metallicFactor":0,
				"roughnessFactor":0.5
			}
		},
		{
			"doubleSided":true,
			"name":"Fan",
			"pbrMetallicRoughness":{
				"baseColorFactor":[
					0.4643757939338684,
					0.6151713728904724,
					0.44902580976486206,
					1
				],
				"metallicFactor":0,
				"roughnessFactor":0.5
			}
		},
		{
			"doubleSided":true,
			"name":"WindowRain",
			"pbrMetallicRoughness":{
				"baseColorFactor":[
					0.06855213642120361,
					0.0837087482213974,
					0.17885732650756836,
					1
				],
				"metallicFactor":0,
				"roughnessFactor":0.5
			}
		},
		{
			"alphaMode":"BLEND",
			"doubleSided":true,
			"extensions":{
				"KHR_materials_transmission":{
					"transmissionFactor":1
				},
				"KHR_materials_specular":{
					"specularColorFactor":[
						1,
						1,
						1
					]
				},
				"KHR_materials_ior":{
					"ior":1.4500000476837158
				}
			},
			"name":"GlassMaterial",
			"pbrMetallicRoughness":{
				"baseColorFactor":[
					0.8000000715255737,
					0.7481429576873779,
					0.7257896661758423,
					1
				],
				"metallicFactor":0,
				"roughnessFactor":0.24090908467769623
			}
		}
	],
	"meshes":[
		{
			"name":"Cube.004",
			"primitives":[
				{
					"attributes":{
						"POSITION":0,
						"TEXCOORD_0":1,
						"NORMAL":2
					},
					"indices":3,
					"material":0
				},
				{
					"attributes":{
						"POSITION":4,
						"TEXCOORD_0":5,
						"NORMAL":6
					},
					"indices":7,
					"material":1
				},
				{
					"attributes":{
						"POSITION":8,
						"TEXCOORD_0":9,
						"NORMAL":10
					},
					"indices":11,
					"material":2
				},
				{
					"attributes":{
						"POSITION":12,
						"TEXCOORD_0":13,
						"NORMAL":14
					},
					"indices":15,
					"material":3
				},
				{
					"attributes":{
						"POSITION":16,
						"TEXCOORD_0":17,
						"NORMAL":18
					},
					"indices":19,
					"material":4
				},
				{
					"attributes":{
						"POSITION":20,
						"TEXCOORD_0":21,
						"NORMAL":22
					},
					"indices":19,
					"material":5
				}
			]
		},
		{
			"name":"Plane.202",
			"primitives":[
				{
					"attributes":{
						"POSITION":23,
						"TEXCOORD_0":24,
						"NORMAL":25
					},
					"indices":26,
					"material":0
				}
			]
		},
		{
			"name":"Plane.203",
			"primitives":[
				{
					"attributes":{
						"POSITION":27,
						"TEXCOORD_0":28,
						"NORMAL":29
					},
					"indices":30,
					"material":0
				},
				{
					"attributes":{
						"POSITION":31,
						"TEXCOORD_0":32,
						"NORMAL":33
					},
					"indices":34,
					"material":6
				}
			]
		},
		{
			"name":"Plane.204",
			"primitives":[
				{
					"attributes":{
						"POSITION":35,
						"TEXCOORD_0":36,
						"NORMAL":37
					},
					"indices":38,
					"material":0
				},
				{
					"attributes":{
						"POSITION":39,
						"TEXCOORD_0":40,
						"NORMAL":41
					},
					"indices":42,
					"material":6
				}
			]
		},
		{
			"name":"Plane.201",
			"primitives":[
				{
					"attributes":{
						"POSITION":43,
						"TEXCOORD_0":44,
						"NORMAL":45
					},
					"indices":46,
					"material":0
				}
			]
		},
		{
			"name":"Plane.206",
			"primitives":[
				{
					"attributes":{
						"POSITION":47,
						"TEXCOORD_0":48,
						"NORMAL":49
					},
					"indices":50,
					"material":0
				}
			]
		},
		{
			"name":"Plane.001",
			"primitives":[
				{
					"attributes":{
						"POSITION":51,
						"TEXCOORD_0":52,
						"NORMAL":53
					},
					"indices":50,
					"material":0
				}
			]
		}
	],
	"textures":[
		{
			"sampler":0,
			"source":0
		},
		{
			"sampler":0,
			"source":0
		},
		{
			"sampler":0,
			"source":0
		},
		{
			"sampler":0,
			"source":0
		}
	],
	"images":[
		{
			"bufferView":4,
			"mimeType":"image/png",
			"name":"textureAtlus"
		}
	],
	"accessors":[
		{
			"bufferView":0,
			"componentType":5126,
			"count":7598,
			"max":[
				27.415515899658203,
				2.9770667552948,
				10.166221618652344
			],
			"min":[
				-14.42441177368164,
				-2.181702136993408,
				-31.80036735534668
			],
			"type":"VEC3"
		},
		{
			"bufferView":1,
			"componentType":5126,
			"count":7598,
			"type":"VEC2"
		},
		{
			"bufferView":2,
			"componentType":5126,
			"count":7598,
			"type":"VEC3"
		},
		{
			"bufferView":3,
			"componentType":5123,
			"count":13323,
			"type":"SCALAR"
		},
		{
			"bufferView":5,
			"componentType":5126,
			"count":574,
			"max":[
				21.961992263793945,
				3.4006919860839844,
				-3.442754030227661
			],
			"min":[
				-6.740025520324707,
				-2.1816999912261963,
				-29.9654483795166
			],
			"type":"VEC3"
		},
		{
			"bufferView":6,
			"componentType":5126,
			"count":574,
			"type":"VEC2"
		},
		{
			"bufferView":7,
			"componentType":5126,
			"count":574,
			"type":"VEC3"
		},
		{
			"bufferView":8,
			"componentType":5123,
			"count":894,
			"type":"SCALAR"
		},
		{
			"bufferView":9,
			"componentType":5126,
			"count":136,
			"max":[
				22.34129524230957,
				1.1461330652236938,
				-15.987166404724121
			],
			"min":[
				-6.773568153381348,
				0.8352612853050232,
				-22.43796730041504
			],
			"type":"VEC3"
		},
		{
			"bufferView":10,
			"componentType":5126,
			"count":136,
			"type":"VEC2"
		},
		{
			"bufferView":11,
			"componentType":5126,
			"count":136,
			"type":"VEC3"
		},
		{
			"bufferView":12,
			"componentType":5123,
			"count":216,
			"type":"SCALAR"
		},
		{
			"bufferView":13,
			"componentType":5126,
			"count":848,
			"max":[
				24.458293914794922,
				-0.08094555139541626,
				-7.632341384887695
			],
			"min":[
				-9.336803436279297,
				-0.2064226269721985,
				-21.71363639831543
			],
			"type":"VEC3"
		},
		{
			"bufferView":14,
			"componentType":5126,
			"count":848,
			"type":"VEC2"
		},
		{
			"bufferView":15,
			"componentType":5126,
			"count":848,
			"type":"VEC3"
		},
		{
			"bufferView":16,
			"componentType":5123,
			"count":1272,
			"type":"SCALAR"
		},
		{
			"bufferView":17,
			"componentType":5126,
			"count":4,
			"max":[
				10.158821105957031,
				-1.7458471059799194,
				-29.551836013793945
			],
			"min":[
				10.129237174987793,
				-1.8368451595306396,
				-29.637889862060547
			],
			"type":"VEC3"
		},
		{
			"bufferView":18,
			"componentType":5126,
			"count":4,
			"type":"VEC2"
		},
		{
			"bufferView":19,
			"componentType":5126,
			"count":4,
			"type":"VEC3"
		},
		{
			"bufferView":20,
			"componentType":5123,
			"count":6,
			"type":"SCALAR"
		},
		{
			"bufferView":21,
			"componentType":5126,
			"count":4,
			"max":[
				10.77987289428711,
				-1.4057116508483887,
				-29.14128875732422
			],
			"min":[
				10.356868743896484,
				-1.828716516494751,
				-29.14128875732422
			],
			"type":"VEC3"
		},
		{
			"bufferView":22,
			"componentType":5126,
			"count":4,
			"type":"VEC2"
		},
		{
			"bufferView":23,
			"componentType":5126,
			"count":4,
			"type":"VEC3"
		},
		{
			"bufferView":24,
			"componentType":5126,
			"count":8,
			"max":[
				0.11929237097501755,
				0.19229815900325775,
				0.0038336513098329306
			],
			"min":[
				-0.11982833594083786,
				-0.19557808339595795,
				-0.003831129288300872
			],
			"type":"VEC3"
		},
		{
			"bufferView":25,
			"componentType":5126,
			"count":8,
			"type":"VEC2"
		},
		{
			"bufferView":26,
			"componentType":5126,
			"count":8,
			"type":"VEC3"
		},
		{
			"bufferView":27,
			"componentType":5123,
			"count":12,
			"type":"SCALAR"
		},
		{
			"bufferView":28,
			"componentType":5126,
			"count":36,
			"max":[
				0.5491487979888916,
				2.2848825454711914,
				-1.3083702015137533e-06
			],
			"min":[
				8.987402679849765e-07,
				9.782206689123996e-08,
				-0.06811337172985077
			],
			"type":"VEC3"
		},
		{
			"bufferView":29,
			"componentType":5126,
			"count":36,
			"type":"VEC2"
		},
		{
			"bufferView":30,
			"componentType":5126,
			"count":36,
			"type":"VEC3"
		},
		{
			"bufferView":31,
			"componentType":5123,
			"count":78,
			"type":"SCALAR"
		},
		{
			"bufferView":32,
			"componentType":5126,
			"count":4,
			"max":[
				0.556252121925354,
				2.2910006046295166,
				-0.040484469383955
			],
			"min":[
				-0.011931389570236206,
				1.1920928955078125e-07,
				-0.040484469383955
			],
			"type":"VEC3"
		},
		{
			"bufferView":33,
			"componentType":5126,
			"count":4,
			"type":"VEC2"
		},
		{
			"bufferView":34,
			"componentType":5126,
			"count":4,
			"type":"VEC3"
		},
		{
			"bufferView":35,
			"componentType":5123,
			"count":6,
			"type":"SCALAR"
		},
		{
			"bufferView":36,
			"componentType":5126,
			"count":36,
			"max":[
				-8.987402679849765e-07,
				2.2848825454711914,
				-1.3083702015137533e-06
			],
			"min":[
				-0.5443198084831238,
				9.782206689123996e-08,
				-0.06811337172985077
			],
			"type":"VEC3"
		},
		{
			"bufferView":37,
			"componentType":5126,
			"count":36,
			"type":"VEC2"
		},
		{
			"bufferView":38,
			"componentType":5126,
			"count":36,
			"type":"VEC3"
		},
		{
			"bufferView":39,
			"componentType":5123,
			"count":78,
			"type":"SCALAR"
		},
		{
			"bufferView":40,
			"componentType":5126,
			"count":4,
			"max":[
				-0.13045576214790344,
				1.9261481761932373,
				-0.03616610914468765
			],
			"min":[
				-0.41386500000953674,
				1.098280906677246,
				-0.03616610914468765
			],
			"type":"VEC3"
		},
		{
			"bufferView":41,
			"componentType":5126,
			"count":4,
			"type":"VEC2"
		},
		{
			"bufferView":42,
			"componentType":5126,
			"count":4,
			"type":"VEC3"
		},
		{
			"bufferView":43,
			"componentType":5123,
			"count":6,
			"type":"SCALAR"
		},
		{
			"bufferView":44,
			"componentType":5126,
			"count":88,
			"max":[
				1.155592441558838,
				2.630906343460083,
				1.7881393432617188e-07
			],
			"min":[
				-1.3494162559509277,
				-0.0032078027725219727,
				-2.3554251194000244
			],
			"type":"VEC3"
		},
		{
			"bufferView":45,
			"componentType":5126,
			"count":88,
			"type":"VEC2"
		},
		{
			"bufferView":46,
			"componentType":5126,
			"count":88,
			"type":"VEC3"
		},
		{
			"bufferView":47,
			"componentType":5123,
			"count":162,
			"type":"SCALAR"
		},
		{
			"bufferView":48,
			"componentType":5126,
			"count":8,
			"max":[
				0.0674201250076294,
				0.11318206787109375,
				0.0015183184295892715
			],
			"min":[
				-0.06625664234161377,
				-0.11732292175292969,
				-0.0015174674335867167
			],
			"type":"VEC3"
		},
		{
			"bufferView":49,
			"componentType":5126,
			"count":8,
			"type":"VEC2"
		},
		{
			"bufferView":50,
			"componentType":5126,
			"count":8,
			"type":"VEC3"
		},
		{
			"bufferView":51,
			"componentType":5123,
			"count":12,
			"type":"SCALAR"
		},
		{
			"bufferView":52,
			"componentType":5126,
			"count":8,
			"max":[
				0.0674201250076294,
				0.11318206787109375,
				0.0015183184295892715
			],
			"min":[
				-0.06625664234161377,
				-0.11732292175292969,
				-0.0015174674335867167
			],
			"type":"VEC3"
		},
		{
			"bufferView":53,
			"componentType":5126,
			"count":8,
			"type":"VEC2"
		},
		{
			"bufferView":54,
			"componentType":5126,
			"count":8,
			"type":"VEC3"
		}
	],
	"bufferViews":[
		{
			"buffer":0,
			"byteLength":91176,
			"byteOffset":0,
			"target":34962
		},
		{
			"buffer":0,
			"byteLength":60784,
			"byteOffset":91176,
			"target":34962
		},
		{
			"buffer":0,
			"byteLength":91176,
			"byteOffset":151960,
			"target":34962
		},
		{
			"buffer":0,
			"byteLength":26646,
			"byteOffset":243136,
			"target":34963
		},
		{
			"buffer":0,
			"byteLength":486759,
			"byteOffset":269784
		},
		{
			"buffer":0,
			"byteLength":6888,
			"byteOffset":756544,
			"target":34962
		},
		{
			"buffer":0,
			"byteLength":4592,
			"byteOffset":763432,
			"target":34962
		},
		{
			"buffer":0,
			"byteLength":6888,
			"byteOffset":768024,
			"target":34962
		},
		{
			"buffer":0,
			"byteLength":1788,
			"byteOffset":774912,
			"target":34963
		},
		{
			"buffer":0,
			"byteLength":1632,
			"byteOffset":776700,
			"target":34962
		},
		{
			"buffer":0,
			"byteLength":1088,
			"byteOffset":778332,
			"target":34962
		},
		{
			"buffer":0,
			"byteLength":1632,
			"byteOffset":779420,
			"target":34962
		},
		{
			"buffer":0,
			"byteLength":432,
			"byteOffset":781052,
			"target":34963
		},
		{
			"buffer":0,
			"byteLength":10176,
			"byteOffset":781484,
			"target":34962
		},
		{
			"buffer":0,
			"byteLength":6784,
			"byteOffset":791660,
			"target":34962
		},
		{
			"buffer":0,
			"byteLength":10176,
			"byteOffset":798444,
			"target":34962
		},
		{
			"buffer":0,
			"byteLength":2544,
			"byteOffset":808620,
			"target":34963
		},
		{
			"buffer":0,
			"byteLength":48,
			"byteOffset":811164,
			"target":34962
		},
		{
			"buffer":0,
			"byteLength":32,
			"byteOffset":811212,
			"target":34962
		},
		{
			"buffer":0,
			"byteLength":48,
			"byteOffset":811244,
			"target":34962
		},
		{
			"buffer":0,
			"byteLength":12,
			"byteOffset":811292,
			"target":34963
		},
		{
			"buffer":0,
			"byteLength":48,
			"byteOffset":811304,
			"target":34962
		},
		{
			"buffer":0,
			"byteLength":32,
			"byteOffset":811352,
			"target":34962
		},
		{
			"buffer":0,
			"byteLength":48,
			"byteOffset":811384,
			"target":34962
		},
		{
			"buffer":0,
			"byteLength":96,
			"byteOffset":811432,
			"target":34962
		},
		{
			"buffer":0,
			"byteLength":64,
			"byteOffset":811528,
			"target":34962
		},
		{
			"buffer":0,
			"byteLength":96,
			"byteOffset":811592,
			"target":34962
		},
		{
			"buffer":0,
			"byteLength":24,
			"byteOffset":811688,
			"target":34963
		},
		{
			"buffer":0,
			"byteLength":432,
			"byteOffset":811712,
			"target":34962
		},
		{
			"buffer":0,
			"byteLength":288,
			"byteOffset":812144,
			"target":34962
		},
		{
			"buffer":0,
			"byteLength":432,
			"byteOffset":812432,
			"target":34962
		},
		{
			"buffer":0,
			"byteLength":156,
			"byteOffset":812864,
			"target":34963
		},
		{
			"buffer":0,
			"byteLength":48,
			"byteOffset":813020,
			"target":34962
		},
		{
			"buffer":0,
			"byteLength":32,
			"byteOffset":813068,
			"target":34962
		},
		{
			"buffer":0,
			"byteLength":48,
			"byteOffset":813100,
			"target":34962
		},
		{
			"buffer":0,
			"byteLength":12,
			"byteOffset":813148,
			"target":34963
		},
		{
			"buffer":0,
			"byteLength":432,
			"byteOffset":813160,
			"target":34962
		},
		{
			"buffer":0,
			"byteLength":288,
			"byteOffset":813592,
			"target":34962
		},
		{
			"buffer":0,
			"byteLength":432,
			"byteOffset":813880,
			"target":34962
		},
		{
			"buffer":0,
			"byteLength":156,
			"byteOffset":814312,
			"target":34963
		},
		{
			"buffer":0,
			"byteLength":48,
			"byteOffset":814468,
			"target":34962
		},
		{
			"buffer":0,
			"byteLength":32,
			"byteOffset":814516,
			"target":34962
		},
		{
			"buffer":0,
			"byteLength":48,
			"byteOffset":814548,
			"target":34962
		},
		{
			"buffer":0,
			"byteLength":12,
			"byteOffset":814596,
			"target":34963
		},
		{
			"buffer":0,
			"byteLength":1056,
			"byteOffset":814608,
			"target":34962
		},
		{
			"buffer":0,
			"byteLength":704,
			"byteOffset":815664,
			"target":34962
		},
		{
			"buffer":0,
			"byteLength":1056,
			"byteOffset":816368,
			"target":34962
		},
		{
			"buffer":0,
			"byteLength":324,
			"byteOffset":817424,
			"target":34963
		},
		{
			"buffer":0,
			"byteLength":96,
			"byteOffset":817748,
			"target":34962
		},
		{
			"buffer":0,
			"byteLength":64,
			"byteOffset":817844,
			"target":34962
		},
		{
			"buffer":0,
			"byteLength":96,
			"byteOffset":817908,
			"target":34962
		},
		{
			"buffer":0,
			"byteLength":24,
			"byteOffset":818004,
			"target":34963
		},
		{
			"buffer":0,
			"byteLength":96,
			"byteOffset":818028,
			"target":34962
		},
		{
			"buffer":0,
			"byteLength":64,
			"byteOffset":818124,
			"target":34962
		},
		{
			"buffer":0,
			"byteLength":96,
			"byteOffset":818188,
			"target":34962
		}
	],
	"samplers":[
		{
			"magFilter":9729,
			"minFilter":9987
		}
	],
	"buffers":[
		{
			"byteLength":818284,
			"uri":"data:application/octet-stream;base64,"
		}
	]
}
